<svg version="1.1"
     xmlns="http://www.w3.org/2000/svg"
     width="200" height="200"
     viewBox="-4 -4 40 40">
  <path d="M0 0 C10.56 0 21.12 0 32 0 C32 10.56 32 21.12 32 32 C21.44 32 10.88 32 0 32 C0 21.44 0 10.88 0 0 Z " fill="#FDFDFD" transform="translate(0,0)"/>
  <path d="M0 0 C0 10.56 0 21.12 0 32 C-4.95 32 -9.9 32 -15 32 C-17.39858207 24.8042538 -17.10201515 16.30525019 -13.875 9.4375 C-10.33282356 3.36376809 -7.38643277 0 0 0 Z " fill="#FF9A36" transform="translate(32,0)"/>
  <path d="M0 0 C5.63728862 0.9395481 7.70822557 1.58608852 12 5 C14.8736331 9.46473868 14.13558768 13.84766812 14 19 C9.38 19 4.76 19 0 19 C0 12.73 0 6.46 0 0 Z " fill="#359ACC" transform="translate(0,13)"/>
  <path d="M0 0 C0.66 0 1.32 0 2 0 C2.33 2.31 2.66 4.62 3 7 C2.01 7 1.02 7 0 7 C0 4.69 0 2.38 0 0 Z " fill="#DAEAF1" transform="translate(14,25)"/>
</svg>