<?xml version="1.0" encoding="UTF-8"?>
<svg version="1.1" xmlns="http://www.w3.org/2000/svg" width="512" height="512" viewBox="-60 -60 632 632">
<path d="M0 0 C1.37135767 -0.00128164 1.37135767 -0.00128164 2.77041954 -0.00258917 C5.81042198 -0.00422623 8.8503683 0.00124817 11.8903656 0.00672913 C14.07885741 0.00701141 16.26734931 0.00685246 18.45584106 0.00628662 C24.38074732 0.00600024 30.30563325 0.01187121 36.23053479 0.01886058 C42.4284996 0.02512066 48.62646489 0.02570002 54.82443237 0.02688599 C66.5539055 0.02999147 78.28336929 0.03819432 90.0128383 0.04823548 C99.3870526 0.05614238 108.76126591 0.06160595 118.13548279 0.06532288 C119.12660555 0.06571696 119.12660555 0.06571696 120.13775099 0.06611901 C123.45277909 0.06742412 126.7678072 0.06868555 130.08283532 0.06993091 C157.55180567 0.08037758 185.02076773 0.09796188 212.48973083 0.12025452 C213.19090403 75.89592928 213.71993578 151.66997174 214.02215958 227.44841385 C214.05265507 235.07750583 214.08449263 242.70659195 214.1164093 250.3356781 C214.46335611 333.59754064 214.62809365 416.85777189 214.48973083 500.12025452 C201.28973083 500.12025452 188.08973083 500.12025452 174.48973083 500.12025452 C174.48973083 483.62025452 174.48973083 467.12025452 174.48973083 450.12025452 C167.22973083 450.12025452 159.96973083 450.12025452 152.48973083 450.12025452 C152.30410583 452.30650452 152.11848083 454.49275452 151.92723083 456.74525452 C150.41587281 469.5762894 144.11662983 480.50995606 134.48973083 489.12025452 C124.51707315 496.90342646 114.50070511 500.2253579 101.99691772 500.70898438 C100.61960225 500.76776918 100.61960225 500.76776918 99.21446222 500.82774156 C88.72824989 501.24183243 78.24275736 501.29585823 67.7497406 501.32557678 C65.55436026 501.33519187 63.35898163 501.34520383 61.16360474 501.35557556 C55.24138163 501.38239276 49.31915089 501.40356709 43.39690137 501.42357755 C37.07748495 501.44582824 30.7580897 501.47307475 24.43869019 501.49963379 C13.75397221 501.54382275 3.06924624 501.58457031 -7.61549377 501.62294006 C-18.37299468 501.66157582 -29.13047761 501.70307476 -39.88795471 501.74794006 C-41.193586 501.7533766 -42.49921729 501.75881315 -43.84441316 501.76441443 C-45.14768513 501.76984239 -46.4509571 501.77527036 -47.79372215 501.78086281 C-73.65262969 501.88855182 -99.51153309 501.97998197 -125.37056541 502.05191994 C-138.71242558 502.08964002 -152.05414262 502.13846617 -165.39589518 502.20418245 C-174.30379569 502.24752171 -183.21169295 502.28048896 -192.11966497 502.30505294 C-197.22419458 502.31952347 -202.32857954 502.33896186 -207.43302727 502.37172127 C-212.10424464 502.40161637 -216.77529398 502.41738375 -221.44660258 502.42217755 C-223.12667758 502.42636959 -224.80674987 502.4356528 -226.48676229 502.45074725 C-243.54276962 502.59850832 -258.73906437 500.14617292 -271.66651917 488.09291077 C-285.53868432 473.25086966 -286.80520289 456.05241631 -286.82911682 436.67494202 C-286.83844816 434.92324632 -286.84861888 433.17155492 -286.85954952 431.41986847 C-286.8869262 426.6257768 -286.90206861 421.83171484 -286.9149735 417.03756523 C-286.93096212 411.83971509 -286.95787073 406.64191874 -286.9831543 401.44410706 C-287.03088023 391.23480527 -287.06740374 381.02549146 -287.09994036 370.81613111 C-287.12666088 362.49943745 -287.15787616 354.18277107 -287.19187927 345.86610413 C-287.55375285 256.88883278 -287.60108348 167.91163465 -287.51026917 2.12025452 C-262.43203518 1.09177904 -237.37999664 0.98458005 -212.28370285 1.01886058 C-206.81991966 1.0252207 -201.35613557 1.02570772 -195.89234924 1.02688599 C-185.60152961 1.02996273 -175.31072092 1.03812544 -165.01990604 1.04823548 C-153.28057382 1.05951195 -141.541241 1.06493577 -129.80190468 1.06993091 C-105.70468683 1.08031223 -81.60747862 1.09783883 -57.51026917 1.12025452 C-56.64097847 34.98579439 -56.35856446 68.83081092 -56.37594366 102.70670485 C-56.37748168 106.66511024 -56.37737219 110.62351333 -56.3764534 114.58191872 C-56.37630017 115.2497811 -56.37614693 115.91764349 -56.37598906 116.60574413 C-56.37566918 117.96444628 -56.37534497 119.32314844 -56.37501647 120.68185059 C-56.37220453 133.24621356 -56.37538213 145.81056909 -56.38081683 158.37493084 C-56.38530084 169.07218759 -56.38448744 179.7694335 -56.37989807 190.46669006 C-56.37450956 203.03171427 -56.37245841 215.59673209 -56.37551033 228.16175729 C-56.37582875 229.50820148 -56.37614312 230.85464567 -56.3764534 232.20108986 C-56.37660768 232.86282092 -56.37676195 233.52455199 -56.3769209 234.20633551 C-56.37777183 238.79189813 -56.37630365 243.37745642 -56.37397385 247.96301842 C-56.36276012 273.37389045 -56.38202421 298.73026151 -57.51026917 324.12025452 C-44.31026917 324.12025452 -31.11026917 324.12025452 -17.51026917 324.12025452 C-17.52906128 319.24504532 -17.52906128 319.24504532 -17.54823303 314.27134705 C-17.66403258 284.20448588 -17.77878555 254.1376209 -17.89245144 224.0707516 C-17.90746496 220.09962233 -17.92248736 216.1284931 -17.93751526 212.15736389 C-17.94050587 211.36705328 -17.94349649 210.57674267 -17.94657773 209.76248325 C-17.9945075 197.10193687 -18.04315032 184.44139333 -18.09207457 171.78085075 C-18.14256448 158.71086943 -18.19224668 145.64088521 -18.24123621 132.57089818 C-18.26864946 125.2630569 -18.29639459 117.95521726 -18.32507324 110.64738083 C-18.46813498 74.13817513 -18.54243992 37.62976487 -18.51026917 1.12025452 C-12.296925 0.33677266 -6.25826716 -0.02176443 0 0 Z " fill="#DE5EE9" transform="translate(287.51026916503906,-0.1202545166015625)"/>
</svg>
