<?xml version="1.0" encoding="UTF-8"?>
<svg version="1.1" xmlns="http://www.w3.org/2000/svg" width="500" height="543" viewBox="-40 -40 580 623"> 
<path d="M0 0 C0.66 0 1.32 0 2 0 C5.08851172 9.91108475 7.51155693 19.81239963 9.1875 30.0625 C9.41904785 31.42942993 9.41904785 31.42942993 9.65527344 32.82397461 C13.06710977 54.79183404 13.26960923 76.88408197 13.125 99.0625 C13.1137595 101.79100977 13.10567529 104.51952598 13.09765625 107.24804688 C13.07595977 113.83211319 13.04277221 120.41603855 13 127 C13.4755835 126.52056442 13.95116699 126.04112885 14.44116211 125.54716492 C15.06772705 124.91760391 15.69429199 124.28804291 16.33984375 123.6394043 C16.95980225 123.01559372 17.57976074 122.39178314 18.21850586 121.74906921 C20.37731668 119.62955085 22.64129229 117.70627013 25 115.8125 C26.41925781 114.67167969 26.41925781 114.67167969 27.8671875 113.5078125 C28.37217773 113.1046582 28.87716797 112.70150391 29.39746094 112.28613281 C31.08930191 110.92832991 32.76776824 109.55510594 34.4453125 108.1796875 C67.36511272 81.31741412 110.67803256 51.5458233 154.9375 51.9375 C155.96327148 51.94426758 155.96327148 51.94426758 157.00976562 51.95117188 C158.67321604 51.9628044 160.3366205 51.98073306 162 52 C161.6596875 52.42667969 161.319375 52.85335937 160.96875 53.29296875 C150.02284654 67.41201976 141.427551 82.6285542 143 101 C143.76394986 103.58055155 144.7258651 105.61099706 146 108 C150.94231898 108.19769276 155.45905068 107.81548382 160.34375 107.015625 C168.04337519 105.89107316 175.601028 105.61452359 183.375 105.625 C184.06598785 105.62554382 184.75697571 105.62608765 185.46890259 105.62664795 C214.91632725 105.73222303 244.978889 113.32904328 271.30200195 126.62670898 C272.18652542 127.07247787 273.07104889 127.51824677 273.9823761 127.9775238 C274.64819199 128.31494095 275.31400787 128.65235809 276 129 C276.06878304 169.42566022 276.121588 209.85131277 276.15319599 250.2770199 C276.15694776 255.05805243 276.16083076 259.83908484 276.16479492 264.62011719 C276.16558185 265.57186771 276.16636878 266.52361822 276.16717956 267.50420967 C276.1802059 282.88104932 276.20384434 298.25785505 276.23145839 313.63467464 C276.25958996 329.43234246 276.27619259 345.22999261 276.28226548 361.02768445 C276.28636591 370.76256869 276.29927998 380.49735704 276.3237494 390.23221174 C276.33970247 396.92292018 276.3443789 403.6135796 276.34050413 410.30430564 C276.33859734 414.1548556 276.34135779 418.00523893 276.35761642 421.85575867 C276.50157967 457.78142735 271.93234017 488.47534904 246.75 515.6875 C226.27399151 534.92542426 199.52360399 543.20920869 171.80638123 543.12025452 C170.81863884 543.12110894 169.83089645 543.12196337 168.81322247 543.12284368 C165.52446998 543.12448247 162.23576922 543.11900345 158.94702148 543.11352539 C156.58119203 543.11324315 154.21536249 543.11340198 151.84953308 543.1139679 C145.4411718 543.11425442 139.0328293 543.10838108 132.62447238 543.10139394 C126.60150154 543.09529094 120.57852859 543.09477005 114.55555523 543.09374207 C102.63102743 543.09155696 90.7065065 543.08491157 78.78198242 543.07543945 C67.20288121 543.06625132 55.62378186 543.05917734 44.04467773 543.05493164 C43.33016331 543.05466892 42.61564888 543.05440619 41.8794825 543.05413551 C38.29474112 543.05283041 34.70999973 543.05156672 31.12525833 543.05032361 C1.41683433 543.03996786 -28.29158251 543.02228961 -58 543 C-57.70885552 541.41378329 -57.41038155 539.8289109 -57.10888672 538.24462891 C-56.94347382 537.36191315 -56.77806091 536.47919739 -56.6076355 535.56973267 C-55.71356643 531.78865255 -54.09595562 528.69605588 -52.125 525.375 C-51.73425293 524.70114258 -51.34350586 524.02728516 -50.94091797 523.33300781 C-43.45080933 510.7454236 -34.19704094 499.47680839 -24 489 C-23.41814941 488.39768555 -22.83629883 487.79537109 -22.23681641 487.17480469 C-14.542574 479.23792394 -6.72312579 471.81120781 2 465 C3.14002036 464.07276548 4.2779176 463.14291659 5.4140625 462.2109375 C13.99911344 455.19639261 22.88096537 448.72273707 31.98486328 442.40087891 C51.41589483 428.8928514 70.3307747 414.67008269 87.53222656 398.38427734 C88.79985674 397.18875787 90.08220083 396.00887548 91.3671875 394.83203125 C119.09632936 368.57568264 130.38715372 334.39935835 132.1875 297.1171875 C132.52600539 278.20319909 128.61449826 258.88176977 115.375 244.6875 C105.25905067 235.11918101 93.32763077 231.59074159 79.6875 231.6875 C78.44528687 231.69487183 78.44528687 231.69487183 77.17797852 231.70239258 C64.75668992 231.93835471 52.90197959 235.14055215 43.625 243.75 C38.01658136 249.74364336 35.0312249 256.94156676 34.98046875 265.1640625 C35.55125477 274.70588168 37.27418889 282.77620223 42.375 290.9375 C43.179375 292.4534375 43.179375 292.4534375 44 294 C42.90423529 297.25305148 41.26597589 298.83853918 38.5 300.77734375 C37.78714844 301.28394531 37.07429687 301.79054688 36.33984375 302.3125 C35.56769531 302.84875 34.79554688 303.385 34 303.9375 C32.35400797 305.10264043 30.70817909 306.26801137 29.0625 307.43359375 C28.21945313 308.02640137 27.37640625 308.61920898 26.5078125 309.22998047 C22.64824198 311.95407376 18.82499968 314.72768677 15 317.5 C13.49891746 318.58493923 11.99761467 319.6695738 10.49609375 320.75390625 C9.75343262 321.29031738 9.01077148 321.82672852 8.24560547 322.37939453 C6.00994555 323.99282251 3.77275484 325.60410578 1.53515625 327.21484375 C-6.25915847 332.82903178 -14.024536 338.47885383 -21.75 344.1875 C-27.70398406 348.58670603 -33.6797987 352.94902071 -39.71484375 357.23632812 C-42.99030118 359.56342637 -46.25592276 361.90325364 -49.51171875 364.2578125 C-50.29168213 364.82153564 -51.07164551 365.38525879 -51.87524414 365.96606445 C-53.44876345 367.10669205 -55.01960683 368.25102099 -56.58764648 369.39916992 C-60.51035063 372.26092918 -64.45624138 374.8801583 -68.625 377.375 C-77.19432686 383.3394883 -81.40363362 395.15736825 -83.48046875 404.9921875 C-84.4003919 410.31805838 -85.26586153 415.64510762 -86 421 C-99.35241988 421.86610291 -111.75233814 418.54221313 -122.3046875 410.171875 C-134.17739743 399.37850233 -138.80233531 384.03458311 -139.89889336 368.44981956 C-140.05365768 363.16916764 -139.41687884 358.12248062 -138.64477539 352.9074707 C-138.48886429 351.77737076 -138.33295319 350.64727081 -138.1723175 349.48292542 C-137.6603571 345.79526843 -137.12914634 342.11066942 -136.59765625 338.42578125 C-136.23626156 335.84857772 -135.87612828 333.27119701 -135.51719666 330.69364929 C-134.67015156 324.63178893 -133.81112397 318.57174353 -132.94589752 312.51245517 C-131.86453177 304.93505023 -130.80010876 297.35528097 -129.73632812 289.77539062 C-128.65099068 282.04259421 -127.56431506 274.31001646 -126.46510315 266.57917786 C-126.29920685 265.40970612 -126.13331055 264.24023438 -125.96238708 263.0353241 C-125.65155858 260.84536845 -125.3396502 258.65556571 -125.02648926 256.46594238 C-124.89041763 255.50593826 -124.75434601 254.54593414 -124.614151 253.55683899 C-124.49486268 252.72014333 -124.37557436 251.88344767 -124.25267124 251.02139759 C-123.95865565 249.00876199 -123.95865565 249.00876199 -124 247 C-125.43384751 245.75815799 -126.92677025 244.58457712 -128.4375 243.4375 C-146.28810405 229.08340603 -161.82644312 211.64633601 -172 191 C-172 190.34 -172 189.68 -172 189 C-167.6050188 189.64215095 -163.91873197 191.32065934 -159.9375 193.1875 C-145.2378045 199.81532673 -129.91003451 203.65059076 -114 206 C-113.94933884 205.27926804 -113.89867767 204.55853607 -113.84648132 203.81596375 C-113.27482589 196.29680462 -112.33124356 188.90190285 -111.14453125 181.45703125 C-110.96041183 180.29032394 -110.77629242 179.12361664 -110.58659363 177.92155457 C-110.19643049 175.46140166 -109.80384088 173.00163246 -109.40893555 170.54223633 C-108.82151908 166.86889971 -108.24926782 163.19341462 -107.67773438 159.51757812 C-104.43219694 139.00025789 -100.37229262 118.62309344 -93.625 98.9375 C-93.05483154 97.25648193 -93.05483154 97.25648193 -92.47314453 95.54150391 C-82.40685147 66.60456765 -82.40685147 66.60456765 -71 59 C-70.98541748 59.92296875 -70.97083496 60.8459375 -70.95581055 61.796875 C-70.466053 89.81862111 -68.59349757 117.38644535 -64.4375 145.125 C-64.33167603 145.83522308 -64.22585205 146.54544617 -64.11682129 147.27719116 C-63.81308056 149.29278334 -63.50042755 151.30674089 -63.18359375 153.3203125 C-63.00368896 154.46773926 -62.82378418 155.61516602 -62.63842773 156.79736328 C-62.00285672 159.98566943 -61.09632168 162.9425545 -60 166 C-28.18132086 114.28488474 -8.01050035 60.35982283 0 0 Z M-39 201 C-39.40089844 201.969375 -39.80179688 202.93875 -40.21484375 203.9375 C-45.86383757 217.35153824 -52.57276738 230.10273041 -61 242 C-60.690625 242.598125 -60.38125 243.19625 -60.0625 243.8125 C-57.95230232 248.15702463 -57.3412335 252.22619894 -58 257 C-60.07196036 260.99592354 -61.74380539 263.4611642 -66 265 C-67.90031091 264.86524568 -69.79693905 264.67227554 -71.6875 264.4375 C-76.014702 264.30476374 -77.47915441 264.5434383 -80.78515625 267.44140625 C-83.01991554 270.21449107 -85.07470162 273.0050914 -87 276 C-84.02320096 278.97679904 -81.27858895 278.31913007 -77.20336914 278.38037109 C-63.59753615 278.5806347 -63.59753615 278.5806347 -51 274 C-50.27039063 273.5875 -49.54078125 273.175 -48.7890625 272.75 C-38.78021839 266.20146259 -35.50184984 255.14926927 -33 244 C-31.50602018 234.82834905 -31.74860659 226.43919093 -33.3125 217.3125 C-33.43012695 216.61205566 -33.54775391 215.91161133 -33.66894531 215.18994141 C-34.58637338 210.20039975 -36.11322343 205.70901378 -38 201 C-38.33 201 -38.66 201 -39 201 Z " fill="#0A143C" transform="translate(224,0)"/>
<path d="M0 0 C2.27864186 0.01005951 4.55728806 0.01918006 6.8359375 0.02734375 C12.34905521 0.04909952 17.86200644 0.08233711 23.375 0.125 C21.87701465 3.28872552 20.42945722 5.16324224 17.8125 7.5 C-16.71227209 41.40045433 -19.98857427 104.27259617 -26.625 149.125 C-35.13587192 148.171948 -35.13587192 148.171948 -39.21875 146.77734375 C-40.01200684 146.50664062 -40.80526367 146.2359375 -41.62255859 145.95703125 C-42.44836426 145.66183594 -43.27416992 145.36664063 -44.125 145.0625 C-45.00881348 144.74796875 -45.89262695 144.4334375 -46.80322266 144.109375 C-54.16327 141.41994806 -61.04887413 138.14114417 -67.97802734 134.49462891 C-71.33853393 132.75579456 -74.72471361 131.06994865 -78.11328125 129.38671875 C-79.11760193 128.8874437 -79.11760193 128.8874437 -80.14221191 128.37808228 C-82.87507909 127.01982727 -85.60821352 125.66211182 -88.34173584 124.30517578 C-90.27441176 123.34479574 -92.20570381 122.38168323 -94.13671875 121.41796875 C-95.26553467 120.8561792 -96.39435059 120.29438965 -97.55737305 119.71557617 C-100.31969499 118.2833018 -102.97886415 116.76005841 -105.625 115.125 C-100.98964587 124.14140471 -96.32454386 133.14189691 -91.625 142.125 C-91.07602051 143.17445801 -90.52704102 144.22391602 -89.96142578 145.30517578 C-78.96071495 166.2158754 -62.94109942 196.54562318 -41.25 208.42578125 C-38.86772064 210.91686664 -39.42744734 213.26873209 -39.48947144 216.55856895 C-39.71450719 220.81994921 -40.29169813 225.00798049 -40.91015625 229.2277832 C-41.04670624 230.19493256 -41.18325623 231.16208191 -41.32394409 232.15853882 C-41.61916221 234.24427047 -41.9171831 236.32960698 -42.21774292 238.41457558 C-42.69439244 241.72363082 -43.16283635 245.03375748 -43.62915039 248.34428406 C-44.95597342 257.75188915 -46.29900263 267.15717074 -47.64355469 276.56225586 C-48.46745192 282.32938254 -49.2832256 288.09761524 -50.0944519 293.86653709 C-50.55334663 297.1110641 -51.02179133 300.35411972 -51.49047852 303.59724426 C-53.30019236 316.33010552 -54.98162564 328.51245221 -51.9375 341.1875 C-51.66740112 342.34390991 -51.66740112 342.34390991 -51.3918457 343.52368164 C-47.62388359 358.87076356 -39.49395614 373.6967284 -25.90600586 382.25268555 C-9.65155351 391.92514307 7.91963973 392.17450934 26.375 393.125 C26.35405273 392.43575439 26.33310547 391.74650879 26.31152344 391.03637695 C25.6260077 365.06270612 25.6260077 365.06270612 30.375 355.125 C30.91382813 353.98546875 31.45265625 352.8459375 32.0078125 351.671875 C34.59072853 347.27015559 38.33715147 344.8166714 42.5 342 C44.12786126 340.86234696 45.75545813 339.72431552 47.3828125 338.5859375 C48.21329102 338.01198242 49.04376953 337.43802734 49.89941406 336.84667969 C53.76335316 334.15945104 57.5670452 331.3906895 61.375 328.625 C62.87468192 327.54122639 64.37468288 326.45789411 65.875 325.375 C66.98875 324.570625 66.98875 324.570625 68.125 323.75 C92.875 305.875 92.875 305.875 95.12475586 304.25024414 C96.6256555 303.16621584 98.12646922 302.08206858 99.62719727 300.99780273 C103.36273967 298.29912345 107.09972254 295.60248688 110.83984375 292.91015625 C118.63415801 287.29596855 126.39956722 281.64618822 134.125 275.9375 C152.28423811 262.51884126 152.28423811 262.51884126 160.375 257.125 C159.85458748 252.8368008 157.13830962 250.08877984 154.5 246.875 C147.8480899 238.41074313 145.68535276 232.51334045 145.96875 221.47265625 C146.66499831 215.73530237 148.77065171 212.36403247 153.1015625 208.640625 C163.27242376 201.52520766 176.28357009 200.63663494 188.23828125 202.59375 C198.39060312 205.24630066 205.88668741 211.26366197 211.375 220.125 C216.83405255 230.97486695 217.74021444 241.55264402 217.6875 253.5625 C217.68534485 254.2272937 217.6831897 254.8920874 217.68096924 255.57702637 C217.47482296 295.23575643 201.35809808 323.38774136 173.66040039 351.02294922 C168.50150611 356.0941706 163.08914114 360.68711373 157.375 365.125 C156.0357247 366.19178796 154.69724472 367.25957482 153.359375 368.328125 C144.91336532 375.03133703 136.29355478 381.33964808 127.3527832 387.36572266 C119.48364843 392.6830777 111.89928056 398.33304019 104.375 404.125 C103.44083252 404.84067139 103.44083252 404.84067139 102.48779297 405.57080078 C95.62299123 410.84105793 88.96191623 416.22772542 82.58984375 422.09375 C80.61660756 423.90341988 78.60392187 425.64339891 76.5625 427.375 C55.08428149 446.15757165 32.05932205 472.10273321 27.375 501.125 C20.01056433 501.19539186 12.64620447 501.24825331 5.281497 501.28043652 C1.85949776 501.29590491 -1.5622667 501.31678445 -4.98413086 501.35131836 C-36.01369288 501.64120802 -66.19679044 499.33539346 -90.625 478.125 C-91.43324219 477.45984375 -92.24148437 476.7946875 -93.07421875 476.109375 C-113.64220407 458.59666468 -123.1962576 433.45677981 -125.625 407.125 C-126.1227847 397.67182795 -126.04264883 388.19977592 -126.01717401 378.7363193 C-126.01029939 374.94755426 -126.02090577 371.1588283 -126.02911377 367.37007141 C-126.04236487 359.97410671 -126.0396122 352.578234 -126.03087585 345.18226588 C-126.02406543 339.16456838 -126.02319699 333.14689643 -126.0264473 327.12919617 C-126.026907 326.26856814 -126.02736669 325.40794012 -126.02784032 324.52123246 C-126.02879962 322.77218949 -126.02977227 321.02314653 -126.0307581 319.27410358 C-126.03928673 302.92219383 -126.02951771 286.57033476 -126.013357 270.21843332 C-125.99995613 256.22648879 -126.00228493 242.23461896 -126.01611328 228.24267578 C-126.03221395 211.94419138 -126.03846299 195.64575125 -126.02927649 179.34726 C-126.02832097 177.60510795 -126.02737786 175.86295589 -126.0264473 174.12080383 C-126.02575306 172.83547151 -126.02575306 172.83547151 -126.02504479 171.52417287 C-126.02246833 165.52258931 -126.0267967 159.52103412 -126.03388596 153.51945496 C-126.04235124 146.19281119 -126.03991622 138.86626369 -126.02404372 131.53963077 C-126.01622798 127.81060045 -126.01295295 124.08172987 -126.02299118 120.35270119 C-126.11497301 83.10423692 -126.11497301 83.10423692 -119.9375 65.8125 C-119.68403809 65.08160156 -119.43057617 64.35070312 -119.16943359 63.59765625 C-110.52555271 39.7867978 -92.47040239 20.95562792 -69.75512695 10.21459961 C-47.45784055 0.18312837 -24.04182039 -0.18672574 0 0 Z " fill="#1480FF" transform="translate(125.625,41.875)"/>
<path d="M0 0 C2.390625 0.671875 2.390625 0.671875 5.125 1.6875 C6.91164063 2.15929688 6.91164063 2.15929688 8.734375 2.640625 C33.99493343 9.4125912 55.72782179 24.9361674 69.00537109 47.61230469 C77.125 62.66176952 77.125 62.66176952 77.125 68.6875 C72.1274343 67.03740996 67.14792003 65.34919583 62.18359375 63.6015625 C28.54236482 51.88334523 -3.47650186 47.96699321 -38.875 51.6875 C-37.18011246 37.04171728 -30.76476278 26.51418898 -20.4609375 16.30712891 C-18.712027 14.52106483 -17.06167809 12.6658549 -15.40625 10.79296875 C-5.35526188 -0.34201673 -5.35526188 -0.34201673 0 0 Z " fill="#1487FF" transform="translate(417.875,43.3125)"/>
<path d="M0 0 C0.495 1.485 0.495 1.485 1 3 C0.38294189 3.18997559 -0.23411621 3.37995117 -0.86987305 3.57568359 C-34.66852718 14.10164833 -63.83014609 31.03265249 -91.36328125 53.13671875 C-93.80153327 54.85975018 -95.17018074 55.40858773 -98 56 C-98.02505615 55.04448242 -98.0501123 54.08896484 -98.07592773 53.10449219 C-98.17236195 49.45126902 -98.2719377 45.79813631 -98.37231445 42.14501953 C-98.41479631 40.58416911 -98.4565013 39.02329729 -98.49731445 37.46240234 C-98.81632523 25.29273199 -99.3918153 13.16369391 -100 1 C-67 0.67 -34 0.34 0 0 Z " fill="#1473FF" transform="translate(348,41)"/>
<path d="M0 0 C11.55 0 23.1 0 35 0 C33.87240356 10.14836795 33.87240356 10.14836795 32.28515625 15.34375 C31.93404785 16.49472168 31.58293945 17.64569336 31.22119141 18.83154297 C30.83882324 20.04213379 30.45645508 21.25272461 30.0625 22.5 C29.86436707 23.13149963 29.66623413 23.76299927 29.46209717 24.41363525 C22.74383807 45.74442563 13.93500867 65.98463399 4 86 C3.34 86 2.68 86 2 86 C0.57177861 77.41051887 -0.49777501 68.87195542 -1.125 60.1875 C-1.20919189 59.02605469 -1.29338379 57.86460938 -1.38012695 56.66796875 C-4.31235529 12.93706587 -4.31235529 12.93706587 0 0 Z " fill="#1469FF" transform="translate(168,42)"/>
<path d="M0 0 C0.33 1.32 0.66 2.64 1 4 C-2.75 7 -2.75 7 -5 7 C-3.70700306 4.11562221 -2.34058637 2.12780579 0 0 Z " fill="#0C2360" transform="translate(152,59)"/>
</svg>
